<?xml version="1.0" standalone="no"?>
<!DOCTYPE svg PUBLIC "-//W3C//DTD SVG 20010904//EN"
 "http://www.w3.org/TR/2001/REC-SVG-20010904/DTD/svg10.dtd">
<svg version="1.0" xmlns="http://www.w3.org/2000/svg"
 width="512.000000pt" height="512.000000pt" viewBox="0 0 512.000000 512.000000"
 preserveAspectRatio="xMidYMid meet">

<g transform="translate(0.000000,512.000000) scale(0.100000,-0.100000)"
fill="#000000" stroke="none">
<path d="M402 4681 c2 -6 131 -145 288 -310 l285 -301 5 -197 5 -198 170 0
170 0 3 196 2 195 272 293 271 293 23 -24 c12 -12 137 -144 278 -293 l256
-269 2 -196 3 -195 170 0 170 0 3 196 2 195 272 293 271 293 23 -24 c12 -12
137 -144 278 -293 l256 -269 2 -196 3 -195 170 0 170 0 3 196 2 195 285 308
c157 169 285 310 285 312 0 2 -87 4 -193 4 l-193 0 -173 -185 c-95 -102 -177
-185 -180 -183 -4 2 -83 85 -175 186 l-168 182 -377 0 -377 0 -173 -185 c-95
-102 -177 -185 -180 -183 -4 2 -83 85 -175 186 l-168 182 -377 0 -377 0 -173
-185 c-95 -102 -177 -185 -180 -183 -4 2 -83 85 -175 186 l-168 182 -210 0
c-128 0 -208 -4 -206 -9z"/>
<path d="M397 3153 c-4 -3 -7 -271 -7 -595 l0 -588 2205 0 2205 0 0 140 0 140
-2000 0 -2000 0 0 95 0 95 1980 0 1980 0 0 135 0 135 -1980 0 -1980 0 0 85 0
85 1990 0 1990 0 0 140 0 140 -2188 0 c-1204 0 -2192 -3 -2195 -7z"/>
<path d="M390 940 l0 -510 180 0 180 0 0 169 0 170 343 3 c342 4 342 4 422 31
162 55 235 150 235 307 0 181 -105 285 -330 326 -56 10 -194 13 -552 14 l-478
0 0 -510z m940 255 c37 -19 50 -43 50 -90 0 -51 -13 -70 -60 -89 -34 -13 -84
-16 -305 -16 l-265 0 0 105 0 105 275 0 c227 0 281 -3 305 -15z"/>
<path d="M1910 940 l0 -510 180 0 180 0 0 169 0 170 343 3 c342 4 342 4 422
31 162 55 235 150 235 307 0 181 -105 285 -330 326 -56 10 -194 13 -552 14
l-478 0 0 -510z m940 255 c37 -19 50 -43 50 -90 0 -51 -13 -70 -60 -89 -34
-13 -84 -16 -305 -16 l-265 0 0 105 0 105 275 0 c227 0 281 -3 305 -15z"/>
<path d="M3410 940 l0 -510 180 0 180 0 0 169 0 170 343 3 c342 4 342 4 422
31 162 55 235 150 235 307 0 181 -105 285 -330 326 -56 10 -194 13 -552 14
l-478 0 0 -510z m940 255 c37 -19 50 -43 50 -90 0 -51 -13 -70 -60 -89 -34
-13 -84 -16 -305 -16 l-265 0 0 105 0 105 275 0 c227 0 281 -3 305 -15z"/>
</g>
</svg>
